{"title":"Saturday.Night.Live.S03.DVDRip.XviD-DIMENSION","uid":13284303,"size":14649782272,"categoryP":"video","categoryS":"tv_shows","magnet":"?xt=urn:btih:dae35e0144a151d7f2481f11e2d9bd07340a5ed4&amp;dn=Saturday.Night.Live.S03.DVDRip.XviD-DIMENSION&amp;tr=udp%3A%2F%2Ftracker.leechers-paradise.org%3A6969&amp;tr=udp%3A%2F%2Fzer0day.ch%3A1337&amp;tr=udp%3A%2F%2Fopen.demonii.com%3A1337&amp;tr=udp%3A%2F%2Ftracker.coppersurfer.tk%3A6969&amp;tr=udp%3A%2F%2Fexodus.desync.com%3A6969","seeders":1,"leechers":0,"uploader":"imPROvise","files":20,"time":1453522748,"description":"1 Steve Martin/Jackson Browne 1977-09-24\r\n2 Madeline Kahn/Taj Mahal 1977-10-08\r\n3 Hugh Hefner/Libby Titus 1977-10-15\r\n4 Charles Grodin/Paul Simon 1977-10-29\r\n5 Ray Charles/Franklyn Ajaye 1977-11-12\r\n6 Buck Henry/Leon Redbone 1977-11-19\r\n7 Mary Kay Place/Willie Nelson 1977-12-10\r\n8 Miskel Spillman/Elvis Costello 1977-12-17\r\n9 Steve Martin/The Nitty Gritty Dirty Band 1978-01-21\r\n10 Robert Klein/Bonnie Raitt 1978-01-28\r\n11 Chevy Chase/Billy Joel 1978-02-18\r\n12 O.J. Simpson/Ashford and Simpson 1978-02-25\r\n13 Art Garfunkel/Stephen Bishop 1978-03-11\r\n14 Jill Clayburgh/Eddie Money 1978-03-18\r\n15 Christopher Lee/Meat Loaf 1978-03-25\r\n16 Michael Palin/Eugene Record 1978-04-08\r\n17 Michael Sarrazin/Keith Jarrett 1978-04-15\r\n18 Steve Martin/The Blues Brothers 1978-04-22\r\n19 Richard Dreyfuss/Jimmy Buffett 1978-05-13\r\n20 Buck Henry/Sun Ra 1978-05-20\r\n\r\nFormat: AVI\r\nFormat/Info: Audio Video Interleave\r\nFile size: 698 MiB\r\nDuration: 1h 8mn\r\nOverall bit rate mode: Variable\r\nOverall bit rate: 1 415 Kbps\r\nWriting application: Nandub v1.0rc2\r\nWriting library: Nandub build 1853/release\r\n\r\nVideo\r\nID: 0\r\nFormat: MPEG-4 Visual\r\nFormat profile: Advanced   \r\nFormat settings, BVOP: 2\r\nFormat settings, QPel: No\r\nFormat settings, GMC: No warppoints\r\nFormat settings, Matrix: Default (H.263)\r\nCodec ID: XVID\r\nCodec ID/Hint: XviD\r\nDuration: 1h 8mn\r\nBit rate: 1 305 Kbps\r\nWidth: 512 pixels\r\nHeight: 384 pixels\r\nDisplay aspect ratio: 4:3\r\nFrame rate: 29.970 fps\r\nColor space: YUV\r\nChroma subsampling: 4:2:0\r\nBit depth: 8 bits\r\nScan type: Progressive\r\nCompression mode: Lossy\r\nBits/(Pixel*Frame): 0.221\r\nStream size: 644 MiB (92%)\r\nWriting library: XviD 1.2.0SMP (UTC 2006-01-08)\r\n\r\nAudio\r\nID: 1\r\nFormat: MPEG Audio\r\nFormat version: Version 1\r\nFormat profile: Layer 3\r\nCodec ID: 55\r\nCodec ID/Hint: MP3\r\nDuration: 1h 8mn\r\nBit rate mode: Variable\r\nBit rate: 96.2 Kbps\r\nMinimum bit rate: 48.0 Kbps\r\nChannel(s): 1 channel\r\nSampling rate: 48.0 KHz\r\nCompression mode: Lossy\r\nStream size: 47.5 MiB (7%)\r\nAlignment: Aligned on interleaves\r\nInterleave, duration: 24 ms (0.72 video frame)\r\nInterleave, preload duration: 363 ms\r\nWriting library: LAME3.95\r\nEncoding settings: -m m -V 4 -q 2 -lowpass 18 --vbr-old -b 48","torrent":{"xt":"urn:btih:dae35e0144a151d7f2481f11e2d9bd07340a5ed4","amp;dn":"Saturday.Night.Live.S03.DVDRip.XviD-DIMENSION","amp;tr":["udp%3A%2F%2Ftracker.leechers-paradise.org%3A6969","udp%3A%2F%2Fzer0day.ch%3A1337","udp%3A%2F%2Fopen.demonii.com%3A1337","udp%3A%2F%2Ftracker.coppersurfer.tk%3A6969","udp%3A%2F%2Fexodus.desync.com%3A6969"],"infoHash":"dae35e0144a151d7f2481f11e2d9bd07340a5ed4","infoHashBuffer":{"type":"Buffer","data":[218,227,94,1,68,161,81,215,242,72,31,17,226,217,189,7,52,10,94,212]},"announce":[],"urlList":[]}}